<svg xmlns="http://www.w3.org/2000/svg" viewBox="0 0 407 371" width="407" height="371">
	<style>
		tspan { white-space:pre }
		.shp0 { fill: #0c0c0c } 
		.shp1 { fill: #141517 } 
		.txt2 { font-size: 58px;fill: rgb(13,13,13);font-family: "Hipstelvetica";font-weight: 300;text-anchor: middle } 
		.txt3 { font-size: 25px;fill: rgb(13,13,13);font-family: "Nexa Light";font-weight: 300;text-anchor: middle } 
		.txt4 { font-size: 33px;fill: rgb(13,13,13);font-family: "Nexa Light";font-weight: 300;text-anchor: middle } 
		.txt5 { font-size: 37px;fill: rgb(255,255,255);font-family: "Hipstelvetica";font-weight: 300;text-anchor: middle } 
		.txt6 { font-size: 83px;line-height: 74px;fill: rgb(13,13,13);font-family: "Hipstelvetica";font-weight: 300;text-anchor: middle } 
	</style>
	<g id="Background">
		<path id="Job Title Bg" class="shp0" d="M55,-118h297v-50h-297z" />
		<g id="Badge">
			<g id="Border">
				<path id="Right" class="shp0" d="M35.15 185L219 1.15L402.85 185L219 368.85L35.15 185ZM393.71 185L219 10.29L44.29 185L219 359.71L393.71 185Z" />
				<path id="Left" class="shp0" d="M5.15 185L189 1.15L372.85 185L189 368.85L5.15 185ZM363.71 185L189 10.29L14.29 185L189 359.71L363.71 185Z" />
			</g>
			<text id="SIX" style="transform: matrix(1,0,0,1,202.5,287)" >
				<tspan x="0" y="0" class="txt2">SIX</tspan>
			</text>
			<text id="Text layer 34" style="transform: matrix(1,0,0,1,20,-17)" >
			</text>
			<path id="Crown" class="shp0" d="M203.28,98.5c-1.08,0.73 -1.72,1.96 -2.31,3.25c-0.22,0.54 -0.45,1.07 -0.67,1.61c0.13,1.29 1.19,2.74 1.75,3.65c-0.45,0.42 -0.91,0.85 -1.36,1.27c-0.45,-0.21 -0.89,-0.41 -1.34,-0.62c-0.06,-1.07 -0.11,-2.15 -0.17,-3.22c-2.37,-2.19 -4.1,2.01 -5.48,3.19c0,0.66 0,1.32 0,1.98c1.09,1.36 2.19,2.72 3.28,4.09c1.08,0.89 2.34,-1.18 3.62,-0.65c0.2,0.13 0.16,1.82 0.19,2.26c0.15,1.96 0.05,4.13 -1.42,4.43c-0.49,0.1 -1.14,-0.52 -1.42,-0.74c-1.01,-0.83 -1.45,-1.87 -2.87,-2.29c-0.31,0.6 -0.34,1.38 -0.64,1.95c-0.36,0.68 -0.9,1.13 -1.31,1.73c-0.58,-0.07 -1.17,-0.14 -1.75,-0.22c-0.22,-0.21 -0.45,-0.41 -0.67,-0.62c-1.26,-1.11 -2.32,-2.62 -3.17,-4.18c-0.35,-0.64 -0.81,-1.32 -0.42,-2.23c0,-0.02 0,-0.04 0,-0.06c0.86,0.11 2.91,1.32 3.7,0.43c0.14,-0.51 0.28,-1.01 0.42,-1.52c0.37,-1.48 0.44,-3.77 -0.06,-5.17c-0.17,-0.35 -0.33,-0.7 -0.5,-1.05c-0.56,-0.1 -1.11,-0.21 -1.67,-0.31c-0.78,-0.26 -1.56,-1.09 -2.64,-0.8c-0.45,0.12 -0.78,0.4 -1.17,0.56c-0.16,0.38 -0.06,0.97 -0.14,1.45c-0.09,0.39 -0.19,0.78 -0.28,1.18c-0.57,-0.21 -1.15,-0.41 -1.73,-0.62c0.04,-0.86 0.29,-1.57 0.42,-2.35c0.1,-0.56 -0.01,-1.23 -0.03,-1.76c-0.74,-0.12 -2.66,-0.39 -3.14,-0.8c-0.9,-0.77 -0.57,-1.85 -1.98,-2.29c-0.25,-0.05 -0.5,-0.1 -0.75,-0.15c-0.39,0.09 -1.44,1.11 -1.56,1.52c-0.15,0.49 0.15,1.17 0.28,1.45c0.74,1.63 1.81,2.85 2.78,4.21c0.41,0.57 0.82,1.14 1.22,1.7c-0.44,1.51 -0.51,3.22 0.33,4.27c0.2,0.09 0.41,0.19 0.61,0.28c0.51,0.33 1.06,0.8 1.42,1.3c1.68,2.33 2.99,5.19 3.76,8.51c0.51,2.23 -0.63,2.42 -0.89,3.9c-0.24,1.35 0.89,2.64 1.28,3.44c2.38,0.13 4.77,0.27 7.15,0.4c0.68,0.01 1.35,0.02 2.03,0.03c0.92,0.02 1.84,0.04 2.75,0.06c1.73,0.02 3.47,0.04 5.2,0.06c6.24,0 12.27,-0.37 18.17,-0.56c0.47,-0.49 1.56,-2.45 1.28,-3.59c-0.17,-0.67 -0.64,-1.09 -0.86,-1.7c-0.34,-0.91 0,-2.17 0.22,-2.97c0.82,-2.91 2,-5.46 3.53,-7.58c0.31,-0.43 0.79,-0.89 1.22,-1.18c0.27,-0.18 0.71,-0.25 0.89,-0.53c0.78,-1.19 0.7,-2.59 0.25,-4.15c0.41,-0.57 0.82,-1.14 1.22,-1.7c0.97,-1.36 2.04,-2.58 2.78,-4.21c0.13,-0.29 0.42,-0.96 0.28,-1.45c-0.12,-0.41 -1.17,-1.42 -1.56,-1.52c-0.25,0.05 -0.5,0.1 -0.75,0.15c-1.4,0.43 -1.08,1.52 -1.98,2.29c-0.48,0.41 -2.41,0.69 -3.14,0.8c-0.01,0.53 -0.13,1.2 -0.03,1.76c0.13,0.77 0.4,1.5 0.42,2.35c-0.57,0.21 -1.15,0.41 -1.73,0.62c-0.19,-0.72 -0.35,-1.62 -0.36,-2.57c-2.16,-1.47 -3.07,0.34 -5.48,0.43c-0.92,1.61 -1.18,3.99 -0.61,6.28c0.14,0.51 0.28,1.01 0.42,1.52c0.8,0.9 2.84,-0.33 3.7,-0.43c0.06,0.36 0.13,0.72 0.19,1.08c-0.17,0.31 -0.33,0.62 -0.5,0.93c-0.77,1.41 -1.58,2.62 -2.59,3.75c-0.36,0.41 -0.87,1.12 -1.36,1.33c-0.57,0.07 -1.15,0.14 -1.73,0.22c-0.92,-0.76 -1.75,-2.15 -1.95,-3.68c-1.44,0.31 -1.91,1.48 -2.89,2.29c-0.29,0.24 -0.92,0.83 -1.42,0.74c-1.95,-0.34 -1.51,-4.41 -1.31,-6.69c1.13,-0.15 1.34,0.23 2.14,0.59c0.41,0.18 0.86,0.17 1.34,0.31c1.17,-1.44 2.34,-2.89 3.51,-4.33c0,-0.65 0,-1.3 0,-1.95c-1.03,-1.23 -2.06,-2.46 -3.09,-3.68c-0.47,-0.07 -0.95,-0.14 -1.42,-0.22c-0.32,0.23 -0.63,0.45 -0.95,0.68c-0.06,1.07 -0.13,2.15 -0.19,3.22c-0.45,0.21 -0.89,0.41 -1.34,0.62c-0.42,-0.38 -0.83,-0.76 -1.25,-1.15c-0.15,-0.29 0.23,-0.64 0.42,-0.93c0.25,-0.4 1.26,-2.3 1.22,-2.85c-0.22,-0.54 -0.45,-1.07 -0.67,-1.61c-0.65,-1.43 -1.83,-3.72 -3.65,-3.75c-0.37,0.21 -0.77,0.27 -1.11,0.5z" />
			<path id="Separator" class="shp0" d="M130.61,113.94l144.96,144.96l2.83,-2.83l-144.96,-144.96zM275.15,111.01l-145.14,145.14l2.83,2.83l145.14,-145.14z" />
		</g>
	</g>
	<g id="Details">
		<g id="Web Info">
			<text id="Website" style="transform: matrix(1,0,0,1,203.589,448.217)" >
			</text>
			<text id="Email" style="transform: matrix(1,0,0,1,204,487)" >
			</text>
		</g>
		<g id="Initials">
			<text id="9" style="transform: matrix(1,0,0,1,277,206)" >
				<tspan x="0" y="0" class="txt2">9</tspan>
			</text>
			<text id="4" style="transform: matrix(1,0,0,1,127,206)" >
				<tspan x="0" y="0" class="txt2">4</tspan>
			</text>
		</g>
		
	</g>
</svg>